<?xml version="1.0" encoding="UTF-8"?>
<svg version="1.1" xmlns="http://www.w3.org/2000/svg" width="500" height="500">
<path d="M0 0 C165 0 330 0 500 0 C500 165 500 330 500 500 C335 500 170 500 0 500 C0 335 0 170 0 0 Z " fill="#A86BE1" transform="translate(0,0)"/>
<path d="M0 0 C9.01228096 4.06007809 16.30357755 11.25684557 23.05859375 18.30859375 C23.88359375 19.11296875 24.70859375 19.91734375 25.55859375 20.74609375 C38.32620708 33.83289741 38.32620708 33.83289741 39.62109375 41.74609375 C38.53914775 48.5984184 34.47411211 53.70727781 29.09375 57.9453125 C22.02997262 62.67709428 13.9919497 65.08480379 5.93359375 67.55859375 C5.09868408 67.81705078 4.26377441 68.07550781 3.40356445 68.34179688 C-5.07983521 70.8494527 -13.12998792 71.44845753 -21.94140625 71.30859375 C-19.69368281 68.82981691 -17.49140088 67.39398494 -14.51171875 65.890625 C-13.20352173 65.22172241 -13.20352173 65.22172241 -11.86889648 64.53930664 C-10.94407471 64.07129639 -10.01925293 63.60328613 -9.06640625 63.12109375 C6.19742892 55.88652166 6.19742892 55.88652166 19.05859375 45.30859375 C19.05859375 42.0817033 18.5076531 40.78972877 16.30859375 38.43359375 C13.31931092 36.93895234 12.22712554 37.29192816 9.05859375 38.30859375 C7.04850311 39.85906887 5.22801657 41.40646837 3.37109375 43.12109375 C-4.49095296 50.06384355 -13.1363865 55.64565354 -21.94140625 61.30859375 C-23.33875445 62.21191051 -24.73589602 63.11554701 -26.1328125 64.01953125 C-28.19064719 65.35065576 -30.24919557 66.6805655 -32.31079102 68.00585938 C-36.38893614 70.63295784 -40.43681292 73.3005019 -44.46484375 76.00390625 C-45.40545654 76.63506348 -46.34606934 77.2662207 -47.31518555 77.91650391 C-49.14950893 79.14999685 -50.98180732 80.38650815 -52.81176758 81.62646484 C-57.08317805 84.4991777 -61.25860454 87.16262897 -65.94140625 89.30859375 C-64.47560247 85.87815244 -62.58009925 83.79483847 -59.87890625 81.24609375 C-56.55441319 78.00100737 -53.53090775 74.68609562 -50.62890625 71.05859375 C-46.23177745 65.56795831 -41.51736256 60.4441213 -36.72265625 55.3046875 C-33.98449421 52.3679355 -31.33496464 49.36323801 -28.7109375 46.32421875 C-26.51523804 43.82315711 -24.25773545 41.3823672 -22.00390625 38.93359375 C-17.41044966 33.90400499 -13.11821989 28.68711634 -8.94140625 23.30859375 C-10.26325453 20.49733895 -11.79892735 18.12223969 -13.62890625 15.62109375 C-16.10683151 11.6872955 -16.49873742 8.85113888 -15.640625 4.30078125 C-14.94140625 2.30859375 -14.94140625 2.30859375 -12.87890625 -0.31640625 C-8.27494568 -2.47145162 -4.5899985 -1.63466747 0 0 Z " fill="#FDFCFE" transform="translate(227.94140625,238.69140625)"/>
<path d="M0 0 C7.7670075 3.03346645 15.92388812 7.5583701 20.75 14.5625 C21.15734375 15.14128906 21.5646875 15.72007812 21.984375 16.31640625 C24.39185319 20.30726432 24.47314479 24.47782767 24 29 C23 31.5 23 31.5 21 33 C15.93364378 33.5717518 14.00871934 33.70744524 9.76953125 30.734375 C8.76429023 29.75935691 7.77859515 28.76381948 6.8125 27.75 C-0.38674734 19.98577088 -0.38674734 19.98577088 -10.01953125 16.796875 C-12.77806001 17.07980103 -14.60388336 18.17346375 -16.5625 20.10546875 C-23.64139159 29.43498619 -27.27447518 41.55344922 -29 53 C-29.66 52.67 -30.32 52.34 -31 52 C-33.32995176 38.48627981 -33.71810308 23.10591403 -26.25 11.125 C-19.05002203 1.22503029 -12.21617649 -1.52088944 0 0 Z " fill="#FCFBFE" transform="translate(237,174)"/>
<path d="M0 0 C0.33 0 0.66 0 1 0 C2.33940447 13.09639927 -2.2243398 25.54631828 -10.14453125 35.94921875 C-13.09031055 39.20508008 -16.2892184 41.67692805 -20 44 C-21.3921875 44.928125 -21.3921875 44.928125 -22.8125 45.875 C-28.22680635 47.78593165 -33.87592391 48.38787352 -39.2421875 46.00390625 C-46.73918225 40.85519196 -53.06765118 31.94799365 -55 23 C-55.53175902 18.55119918 -55.5418404 15.15756814 -53.625 11.0625 C-50.52830189 7.13207547 -50.52830189 7.13207547 -47.75 6.4375 C-44.06422781 7.19140795 -42.78639669 8.70349594 -40.4765625 11.59375 C-38.0889869 15.48461394 -36.7045786 19.6929206 -35.2734375 24.01171875 C-33.92301101 27.18066435 -32.6988767 28.88092001 -30 31 C-23.49156054 31.25032459 -19.59485243 28.1786828 -15 24 C-7.59067019 16.90094363 -3.23191249 9.69573747 0 0 Z " fill="#FDFBFE" transform="translate(337,209)"/>
<path d="M0 0 C3.7225713 1.69460335 6.20904391 4.13249978 8.9375 7.125 C11.02815533 12.78206736 10.76763088 18.69710737 8.875 24.375 C5.71006726 28.80590583 3.60782274 31.51827719 -1.8125 32.51953125 C-7.02686401 32.79980332 -10.96556807 32.67841347 -15.125 29.3125 C-18.38221667 26.17682127 -19.77688195 22.78235002 -20.3359375 18.31640625 C-20.42036083 12.36456141 -20.23255853 8.56670789 -16 4 C-11.10113152 -0.43230958 -6.356651 -1.16672708 0 0 Z " fill="#FDFCFE" transform="translate(292,180)"/>
<path d="M0 0 C3.6578218 2.03993908 5.66946174 3.50419262 8 7 C8.76579737 13.67337705 8.76579737 13.67337705 6.94921875 16.8203125 C5.17251621 18.99009082 3.52491118 20.73754441 1 22 C-6.0505676 22.57791538 -6.0505676 22.57791538 -9.875 20.25 C-12.81923695 17.13257264 -13.85734167 15.34098834 -14.3125 11.0625 C-13.9497378 7.50743041 -13.19786786 5.80417623 -11 3 C-7.33060635 0.12398876 -4.62619262 -0.66088466 0 0 Z " fill="#FAF6FD" transform="translate(252,330)"/>
<path d="M0 0 C10 0 10 0 13.125 1.5 C15.90492812 5.20657082 15.50847672 7.42370948 15 12 C14.01 13.485 14.01 13.485 13 15 C14.32 17.31 15.64 19.62 17 22 C14.75 22.375 14.75 22.375 12 22 C9.875 19.0625 9.875 19.0625 8 16 C7.01 15.67 6.02 15.34 5 15 C5 17.31 5 19.62 5 22 C3.35 22 1.7 22 0 22 C0 14.74 0 7.48 0 0 Z " fill="#F6EFFB" transform="translate(266,330)"/>
<path d="M0 0 C9 0 9 0 13 2 C14.59492803 5.18985607 14.37616681 8.52932887 14 12 C12.9375 14 12.9375 14 11 15 C7.3125 15.1875 7.3125 15.1875 4 15 C4 17.31 4 19.62 4 22 C2.68 22 1.36 22 0 22 C0 14.74 0 7.48 0 0 Z " fill="#FAF8FD" transform="translate(219,330)"/>
<path d="M0 0 C0.33 1.32 0.66 2.64 1 4 C-1.64 4 -4.28 4 -7 4 C-6.28917058 7.29136173 -6.28917058 7.29136173 -3 8.5625 C-2.01 9.036875 -1.02 9.51125 0 10 C1.39935013 12.79870027 1.25265405 14.90498792 1 18 C-0.22265625 19.6796875 -0.22265625 19.6796875 -2 21 C-4.26171875 21.29296875 -4.26171875 21.29296875 -6.6875 21.1875 C-7.49574219 21.16042969 -8.30398437 21.13335937 -9.13671875 21.10546875 C-9.75160156 21.07066406 -10.36648437 21.03585937 -11 21 C-11.66 19.68 -12.32 18.36 -13 17 C-9.8035914 15.93453047 -7.34252724 15.92572162 -4 16 C-4.33 15.01 -4.66 14.02 -5 13 C-5.99 12.5875 -6.98 12.175 -8 11.75 C-11 10 -11 10 -12.125 6.5625 C-12 3 -12 3 -10.5625 0.5 C-6.74074304 -1.73712603 -4.28280869 -0.85656174 0 0 Z " fill="#F8F5FD" transform="translate(211,331)"/>
<path d="M0 0 C4.95 0 9.9 0 15 0 C15 1.65 15 3.3 15 5 C13.35 5 11.7 5 10 5 C10 10.61 10 16.22 10 22 C8.35 22 6.7 22 5 22 C5 16.39 5 10.78 5 5 C3.35 5 1.7 5 0 5 C0 3.35 0 1.7 0 0 Z " fill="#F3E6F9" transform="translate(287,330)"/>
<path d="M0 0 C3.36008858 1.14385994 4.36214938 1.84929875 5.9375 5 C6.375 7.5 6.375 7.5 5.9375 10 C4.3125 12.3125 4.3125 12.3125 1.9375 14 C-1.23485276 14.45319325 -3.12737736 14.52990283 -5.9375 12.9375 C-7.73080867 9.84902396 -7.49091969 7.48856031 -7.0625 4 C-4.90530457 0.68123779 -3.98614767 0 0 0 Z " fill="#AB71E2" transform="translate(250.0625,334)"/>
<path d="M0 0 C1.98 0 3.96 0 6 0 C6.042721 1.66611905 6.04063832 3.33382885 6 5 C5 6 5 6 2.4375 6.0625 C1.2309375 6.0315625 1.2309375 6.0315625 0 6 C0 4.02 0 2.04 0 0 Z " fill="#A26FE4" transform="translate(223,335)"/>
<path d="M0 0 C1.65 0 3.3 0 5 0 C5.38218767 1.65614657 5.71395102 3.32457024 6 5 C5 6 5 6 2.4375 6.0625 C1.2309375 6.0315625 1.2309375 6.0315625 0 6 C0 4.02 0 2.04 0 0 Z " fill="#B26EDF" transform="translate(271,335)"/>
</svg>
